<mxfile host="app.diagrams.net" agent="Mozilla/5.0 (Windows NT 10.0; Win64; x64) AppleWebKit/537.36 (KHTML, like Gecko) Chrome/137.0.0.0 Safari/537.36" version="27.1.6">
  <diagram name="페이지-1" id="5vOvIbBnfif-AlwzyAvX">
    <mxGraphModel grid="1" page="1" gridSize="10" guides="1" tooltips="1" connect="1" arrows="1" fold="1" pageScale="1" pageWidth="827" pageHeight="1169" background="none" math="0" shadow="0">
      <root>
        <mxCell id="0" />
        <mxCell id="1" parent="0" />
        <mxCell id="6NQRvv7VtGhExTstb87F-1" value="사용자" style="rounded=1;whiteSpace=wrap;html=1;fontSize=20;" vertex="1" parent="1">
          <mxGeometry x="10" y="60" width="100" height="40" as="geometry" />
        </mxCell>
        <mxCell id="6NQRvv7VtGhExTstb87F-2" value="프로필" style="rounded=1;whiteSpace=wrap;html=1;fontSize=20;" vertex="1" parent="1">
          <mxGeometry x="140" y="60" width="100" height="40" as="geometry" />
        </mxCell>
        <mxCell id="6NQRvv7VtGhExTstb87F-3" value="사진" style="rounded=1;whiteSpace=wrap;html=1;fontSize=20;" vertex="1" parent="1">
          <mxGeometry x="264" y="60" width="100" height="40" as="geometry" />
        </mxCell>
        <mxCell id="6NQRvv7VtGhExTstb87F-4" value="좋아요" style="rounded=1;whiteSpace=wrap;html=1;fontSize=20;" vertex="1" parent="1">
          <mxGeometry x="490" y="60" width="100" height="40" as="geometry" />
        </mxCell>
        <mxCell id="6NQRvv7VtGhExTstb87F-5" value="댓글" style="rounded=1;whiteSpace=wrap;html=1;fontSize=20;" vertex="1" parent="1">
          <mxGeometry x="380" y="60" width="100" height="40" as="geometry" />
        </mxCell>
        <mxCell id="6NQRvv7VtGhExTstb87F-6" value="사용자" style="rounded=1;whiteSpace=wrap;html=1;fontSize=20;" vertex="1" parent="1">
          <mxGeometry x="280" y="150" width="100" height="40" as="geometry" />
        </mxCell>
        <mxCell id="6NQRvv7VtGhExTstb87F-7" value="프로필" style="rounded=1;whiteSpace=wrap;html=1;fontSize=20;" vertex="1" parent="1">
          <mxGeometry x="530" y="150" width="100" height="40" as="geometry" />
        </mxCell>
        <mxCell id="6NQRvv7VtGhExTstb87F-9" value="사진" style="rounded=1;whiteSpace=wrap;html=1;fontSize=20;" vertex="1" parent="1">
          <mxGeometry x="40" y="150" width="100" height="40" as="geometry" />
        </mxCell>
        <mxCell id="6NQRvv7VtGhExTstb87F-10" value="" style="fontSize=12;html=1;endArrow=ERzeroToMany;startArrow=ERmandOne;rounded=0;exitX=0;exitY=0.5;exitDx=0;exitDy=0;entryX=1;entryY=0.5;entryDx=0;entryDy=0;" edge="1" parent="1" source="6NQRvv7VtGhExTstb87F-6" target="6NQRvv7VtGhExTstb87F-9">
          <mxGeometry width="100" height="100" relative="1" as="geometry">
            <mxPoint x="370" y="460" as="sourcePoint" />
            <mxPoint x="470" y="360" as="targetPoint" />
          </mxGeometry>
        </mxCell>
        <mxCell id="6NQRvv7VtGhExTstb87F-22" value="하나의 사용자는 &lt;br&gt;하나의 프로필 가지거나, 가지지 않음" style="text;html=1;align=center;verticalAlign=middle;whiteSpace=wrap;rounded=0;" vertex="1" parent="1">
          <mxGeometry x="390" y="130" width="130" height="30" as="geometry" />
        </mxCell>
        <mxCell id="6NQRvv7VtGhExTstb87F-23" value="하나의 사용자는&lt;br&gt;여러 사진을 게시하거나,&lt;div&gt;게시하지 않을 수 있음&lt;/div&gt;" style="text;html=1;align=center;verticalAlign=middle;whiteSpace=wrap;rounded=0;" vertex="1" parent="1">
          <mxGeometry x="140" y="130" width="143.25" height="30" as="geometry" />
        </mxCell>
        <mxCell id="6NQRvv7VtGhExTstb87F-25" value="" style="edgeStyle=entityRelationEdgeStyle;fontSize=12;html=1;endArrow=ERzeroToOne;startArrow=ERmandOne;rounded=0;exitX=1;exitY=0.5;exitDx=0;exitDy=0;entryX=0;entryY=0.5;entryDx=0;entryDy=0;" edge="1" parent="1" source="6NQRvv7VtGhExTstb87F-6" target="6NQRvv7VtGhExTstb87F-7">
          <mxGeometry width="100" height="100" relative="1" as="geometry">
            <mxPoint x="310" y="340" as="sourcePoint" />
            <mxPoint x="410" y="240" as="targetPoint" />
          </mxGeometry>
        </mxCell>
        <mxCell id="6NQRvv7VtGhExTstb87F-27" value="사용자" style="rounded=1;whiteSpace=wrap;html=1;fontSize=20;" vertex="1" parent="1">
          <mxGeometry x="310" y="270" width="100" height="40" as="geometry" />
        </mxCell>
        <mxCell id="6NQRvv7VtGhExTstb87F-28" value="사진" style="rounded=1;whiteSpace=wrap;html=1;fontSize=20;" vertex="1" parent="1">
          <mxGeometry x="40" y="270" width="100" height="40" as="geometry" />
        </mxCell>
        <mxCell id="6NQRvv7VtGhExTstb87F-31" value="" style="edgeStyle=entityRelationEdgeStyle;fontSize=12;html=1;endArrow=ERzeroToMany;endFill=1;startArrow=ERzeroToMany;rounded=0;exitX=1;exitY=0.5;exitDx=0;exitDy=0;entryX=0;entryY=0.5;entryDx=0;entryDy=0;" edge="1" parent="1" source="6NQRvv7VtGhExTstb87F-28" target="6NQRvv7VtGhExTstb87F-27">
          <mxGeometry width="100" height="100" relative="1" as="geometry">
            <mxPoint x="110" y="340" as="sourcePoint" />
            <mxPoint x="210" y="240" as="targetPoint" />
            <Array as="points">
              <mxPoint x="200" y="230" />
            </Array>
          </mxGeometry>
        </mxCell>
        <mxCell id="6NQRvv7VtGhExTstb87F-36" value="사용자는 여러 사진에 좋아요를 누르거나, 누르지 않을 수 있음&lt;div&gt;&lt;br/&gt;&lt;/div&gt;" style="text;html=1;align=center;verticalAlign=middle;whiteSpace=wrap;rounded=0;" vertex="1" parent="1">
          <mxGeometry x="175" y="250" width="110" height="30" as="geometry" />
        </mxCell>
        <mxCell id="6NQRvv7VtGhExTstb87F-42" value="사진은 여러 사용자로부터 좋아요를 받거나, &lt;br&gt;받지 않을 수 있음" style="text;html=1;align=center;verticalAlign=middle;whiteSpace=wrap;rounded=0;" vertex="1" parent="1">
          <mxGeometry x="160" y="300" width="140" height="30" as="geometry" />
        </mxCell>
        <mxCell id="6NQRvv7VtGhExTstb87F-46" value="사용자" style="rounded=1;whiteSpace=wrap;html=1;fontSize=20;" vertex="1" parent="1">
          <mxGeometry x="315" y="480" width="100" height="40" as="geometry" />
        </mxCell>
        <mxCell id="6NQRvv7VtGhExTstb87F-47" value="사진" style="rounded=1;whiteSpace=wrap;html=1;fontSize=20;" vertex="1" parent="1">
          <mxGeometry x="45" y="480" width="100" height="40" as="geometry" />
        </mxCell>
        <mxCell id="6NQRvv7VtGhExTstb87F-48" value="" style="edgeStyle=entityRelationEdgeStyle;fontSize=12;html=1;endArrow=ERzeroToMany;endFill=1;startArrow=ERzeroToMany;rounded=0;exitX=1;exitY=0.5;exitDx=0;exitDy=0;entryX=0;entryY=0.5;entryDx=0;entryDy=0;" edge="1" parent="1" source="6NQRvv7VtGhExTstb87F-47" target="6NQRvv7VtGhExTstb87F-46">
          <mxGeometry width="100" height="100" relative="1" as="geometry">
            <mxPoint x="115" y="550" as="sourcePoint" />
            <mxPoint x="215" y="450" as="targetPoint" />
            <Array as="points">
              <mxPoint x="205" y="440" />
            </Array>
          </mxGeometry>
        </mxCell>
        <mxCell id="6NQRvv7VtGhExTstb87F-49" value="사용자는 여러 사진에 댓글을 달거나,&lt;br&gt;달지 않을 수 있음&lt;div&gt;&lt;br&gt;&lt;/div&gt;" style="text;html=1;align=center;verticalAlign=middle;whiteSpace=wrap;rounded=0;" vertex="1" parent="1">
          <mxGeometry x="180" y="460" width="110" height="30" as="geometry" />
        </mxCell>
        <mxCell id="6NQRvv7VtGhExTstb87F-50" value="사진은 여러 사용자로부터 댓글이 달리거나, &lt;br&gt;달리지 않을 수 있음" style="text;html=1;align=center;verticalAlign=middle;whiteSpace=wrap;rounded=0;" vertex="1" parent="1">
          <mxGeometry x="165" y="510" width="140" height="30" as="geometry" />
        </mxCell>
        <mxCell id="6NQRvv7VtGhExTstb87F-53" value="사용자" style="rounded=1;whiteSpace=wrap;html=1;fontSize=20;" vertex="1" parent="1">
          <mxGeometry x="310" y="840" width="100" height="40" as="geometry" />
        </mxCell>
        <mxCell id="6NQRvv7VtGhExTstb87F-54" value="프로필" style="rounded=1;whiteSpace=wrap;html=1;fontSize=20;" vertex="1" parent="1">
          <mxGeometry x="310" y="740" width="100" height="40" as="geometry" />
        </mxCell>
        <mxCell id="6NQRvv7VtGhExTstb87F-55" value="" style="fontSize=12;html=1;endArrow=ERzeroToOne;startArrow=ERmandOne;rounded=0;exitX=0.5;exitY=0;exitDx=0;exitDy=0;entryX=0.5;entryY=1;entryDx=0;entryDy=0;" edge="1" parent="1" source="6NQRvv7VtGhExTstb87F-53" target="6NQRvv7VtGhExTstb87F-54">
          <mxGeometry width="100" height="100" relative="1" as="geometry">
            <mxPoint x="200" y="1170" as="sourcePoint" />
            <mxPoint x="300" y="1070" as="targetPoint" />
          </mxGeometry>
        </mxCell>
        <mxCell id="6NQRvv7VtGhExTstb87F-56" value="좋아요" style="rounded=1;whiteSpace=wrap;html=1;fontSize=20;" vertex="1" parent="1">
          <mxGeometry x="470" y="970" width="100" height="40" as="geometry" />
        </mxCell>
        <mxCell id="6NQRvv7VtGhExTstb87F-57" value="사진" style="rounded=1;whiteSpace=wrap;html=1;fontSize=20;" vertex="1" parent="1">
          <mxGeometry x="310" y="970" width="100" height="40" as="geometry" />
        </mxCell>
        <mxCell id="6NQRvv7VtGhExTstb87F-58" value="" style="fontSize=12;html=1;endArrow=ERzeroToMany;startArrow=ERmandOne;rounded=0;entryX=0;entryY=0.5;entryDx=0;entryDy=0;" edge="1" parent="1" source="6NQRvv7VtGhExTstb87F-57" target="6NQRvv7VtGhExTstb87F-56">
          <mxGeometry width="100" height="100" relative="1" as="geometry">
            <mxPoint x="-110" y="1090" as="sourcePoint" />
            <mxPoint x="-30" y="1170" as="targetPoint" />
          </mxGeometry>
        </mxCell>
        <mxCell id="6NQRvv7VtGhExTstb87F-59" value="" style="edgeStyle=orthogonalEdgeStyle;fontSize=12;html=1;endArrow=ERzeroToMany;startArrow=ERmandOne;rounded=0;exitX=1;exitY=0.5;exitDx=0;exitDy=0;" edge="1" parent="1" source="6NQRvv7VtGhExTstb87F-53" target="6NQRvv7VtGhExTstb87F-56">
          <mxGeometry width="100" height="100" relative="1" as="geometry">
            <mxPoint x="260" y="1050" as="sourcePoint" />
            <mxPoint x="300" y="1170" as="targetPoint" />
          </mxGeometry>
        </mxCell>
        <mxCell id="6NQRvv7VtGhExTstb87F-60" value="댓글" style="rounded=1;whiteSpace=wrap;html=1;fontSize=20;" vertex="1" parent="1">
          <mxGeometry x="140" y="970" width="100" height="40" as="geometry" />
        </mxCell>
        <mxCell id="6NQRvv7VtGhExTstb87F-62" value="" style="fontSize=12;html=1;endArrow=ERzeroToMany;startArrow=ERmandOne;rounded=0;exitX=0;exitY=0.5;exitDx=0;exitDy=0;entryX=1;entryY=0.5;entryDx=0;entryDy=0;" edge="1" parent="1" source="6NQRvv7VtGhExTstb87F-57" target="6NQRvv7VtGhExTstb87F-60">
          <mxGeometry width="100" height="100" relative="1" as="geometry">
            <mxPoint x="-10" y="940" as="sourcePoint" />
            <mxPoint x="-30" y="910" as="targetPoint" />
          </mxGeometry>
        </mxCell>
        <mxCell id="6NQRvv7VtGhExTstb87F-63" value="" style="edgeStyle=orthogonalEdgeStyle;fontSize=12;html=1;endArrow=ERzeroToMany;startArrow=ERmandOne;rounded=0;exitX=0;exitY=0.5;exitDx=0;exitDy=0;entryX=0.5;entryY=0;entryDx=0;entryDy=0;" edge="1" parent="1" source="6NQRvv7VtGhExTstb87F-53" target="6NQRvv7VtGhExTstb87F-60">
          <mxGeometry width="100" height="100" relative="1" as="geometry">
            <mxPoint x="290" y="1130" as="sourcePoint" />
            <mxPoint x="240" y="1200" as="targetPoint" />
          </mxGeometry>
        </mxCell>
        <mxCell id="6NQRvv7VtGhExTstb87F-76" value="다대다 관계 해소" style="text;html=1;align=center;verticalAlign=middle;whiteSpace=wrap;rounded=0;" vertex="1" parent="1">
          <mxGeometry x="580" y="410" width="105" height="30" as="geometry" />
        </mxCell>
        <mxCell id="6NQRvv7VtGhExTstb87F-84" value="좋아요" style="rounded=1;whiteSpace=wrap;html=1;fontSize=20;" vertex="1" parent="1">
          <mxGeometry x="580" y="370" width="100" height="40" as="geometry" />
        </mxCell>
        <mxCell id="6NQRvv7VtGhExTstb87F-85" value="사용자" style="rounded=1;whiteSpace=wrap;html=1;fontSize=20;" vertex="1" parent="1">
          <mxGeometry x="720" y="270" width="100" height="40" as="geometry" />
        </mxCell>
        <mxCell id="6NQRvv7VtGhExTstb87F-86" value="사진" style="rounded=1;whiteSpace=wrap;html=1;fontSize=20;" vertex="1" parent="1">
          <mxGeometry x="450" y="270" width="100" height="40" as="geometry" />
        </mxCell>
        <mxCell id="6NQRvv7VtGhExTstb87F-90" value="" style="edgeStyle=orthogonalEdgeStyle;fontSize=12;html=1;endArrow=ERzeroToMany;startArrow=ERmandOne;rounded=0;exitX=0.5;exitY=1;exitDx=0;exitDy=0;entryX=0;entryY=0.5;entryDx=0;entryDy=0;" edge="1" parent="1" source="6NQRvv7VtGhExTstb87F-86" target="6NQRvv7VtGhExTstb87F-84">
          <mxGeometry width="100" height="100" relative="1" as="geometry">
            <mxPoint x="490" y="350" as="sourcePoint" />
            <mxPoint x="570" y="430" as="targetPoint" />
          </mxGeometry>
        </mxCell>
        <mxCell id="6NQRvv7VtGhExTstb87F-91" value="" style="edgeStyle=orthogonalEdgeStyle;fontSize=12;html=1;endArrow=ERzeroToMany;startArrow=ERmandOne;rounded=0;exitX=0.5;exitY=1;exitDx=0;exitDy=0;entryX=1;entryY=0.5;entryDx=0;entryDy=0;" edge="1" parent="1" source="6NQRvv7VtGhExTstb87F-85" target="6NQRvv7VtGhExTstb87F-84">
          <mxGeometry width="100" height="100" relative="1" as="geometry">
            <mxPoint x="730" y="350" as="sourcePoint" />
            <mxPoint x="810" y="430" as="targetPoint" />
          </mxGeometry>
        </mxCell>
        <mxCell id="6NQRvv7VtGhExTstb87F-100" value="댓글" style="rounded=1;whiteSpace=wrap;html=1;fontSize=20;" vertex="1" parent="1">
          <mxGeometry x="590" y="590" width="100" height="40" as="geometry" />
        </mxCell>
        <mxCell id="6NQRvv7VtGhExTstb87F-101" value="사용자" style="rounded=1;whiteSpace=wrap;html=1;fontSize=20;" vertex="1" parent="1">
          <mxGeometry x="730" y="490" width="100" height="40" as="geometry" />
        </mxCell>
        <mxCell id="6NQRvv7VtGhExTstb87F-102" value="사진" style="rounded=1;whiteSpace=wrap;html=1;fontSize=20;" vertex="1" parent="1">
          <mxGeometry x="460" y="490" width="100" height="40" as="geometry" />
        </mxCell>
        <mxCell id="6NQRvv7VtGhExTstb87F-106" value="" style="edgeStyle=orthogonalEdgeStyle;fontSize=12;html=1;endArrow=ERzeroToMany;startArrow=ERmandOne;rounded=0;exitX=0.5;exitY=1;exitDx=0;exitDy=0;entryX=0;entryY=0.5;entryDx=0;entryDy=0;" edge="1" parent="1" source="6NQRvv7VtGhExTstb87F-102" target="6NQRvv7VtGhExTstb87F-100">
          <mxGeometry width="100" height="100" relative="1" as="geometry">
            <mxPoint x="500" y="570" as="sourcePoint" />
            <mxPoint x="580" y="650" as="targetPoint" />
          </mxGeometry>
        </mxCell>
        <mxCell id="6NQRvv7VtGhExTstb87F-107" value="" style="edgeStyle=orthogonalEdgeStyle;fontSize=12;html=1;endArrow=ERzeroToMany;startArrow=ERmandOne;rounded=0;exitX=0.5;exitY=1;exitDx=0;exitDy=0;entryX=1;entryY=0.5;entryDx=0;entryDy=0;" edge="1" parent="1" source="6NQRvv7VtGhExTstb87F-101" target="6NQRvv7VtGhExTstb87F-100">
          <mxGeometry width="100" height="100" relative="1" as="geometry">
            <mxPoint x="740" y="570" as="sourcePoint" />
            <mxPoint x="820" y="650" as="targetPoint" />
          </mxGeometry>
        </mxCell>
        <mxCell id="6NQRvv7VtGhExTstb87F-108" value="다대다 관계 해소" style="text;html=1;align=center;verticalAlign=middle;whiteSpace=wrap;rounded=0;" vertex="1" parent="1">
          <mxGeometry x="588.25" y="630" width="105" height="30" as="geometry" />
        </mxCell>
        <mxCell id="6NQRvv7VtGhExTstb87F-109" value="" style="edgeStyle=orthogonalEdgeStyle;fontSize=12;html=1;endArrow=ERzeroToMany;startArrow=ERmandOne;rounded=0;exitX=0.5;exitY=1;exitDx=0;exitDy=0;" edge="1" parent="1" source="6NQRvv7VtGhExTstb87F-53">
          <mxGeometry width="100" height="100" relative="1" as="geometry">
            <mxPoint x="250" y="880" as="sourcePoint" />
            <mxPoint x="360" y="970" as="targetPoint" />
          </mxGeometry>
        </mxCell>
      </root>
    </mxGraphModel>
  </diagram>
</mxfile>
